<svg width="84" height="84" viewBox="0 0 84 84" fill="none" xmlns="http://www.w3.org/2000/svg">
<path fill-rule="evenodd" clip-rule="evenodd" d="M30.1105 13.2965C31.5874 11.5928 33.4135 10.2268 35.465 9.29139C37.5165 8.35592 39.7453 7.87286 42 7.87501C46.7495 7.87501 51.0055 9.97501 53.8895 13.2965C56.139 13.1359 58.3966 13.4613 60.5091 14.2506C62.6216 15.04 64.5395 16.2747 66.1325 17.871C67.7282 19.4637 68.9625 21.3811 69.7518 23.4929C70.5411 25.6047 70.8669 27.8617 70.707 30.1105C72.4101 31.5877 73.7754 33.414 74.7102 35.4655C75.6451 37.517 76.1276 39.7456 76.125 42C76.1272 44.2547 75.6441 46.4835 74.7086 48.535C73.7732 50.5865 72.4072 52.4126 70.7035 53.8895C70.8634 56.1383 70.5376 58.3953 69.7483 60.5071C68.959 62.6189 67.7247 64.5363 66.129 66.129C64.5363 67.7247 62.619 68.959 60.5071 69.7483C58.3953 70.5376 56.1384 70.8634 53.8895 70.7035C52.4127 72.4072 50.5865 73.7732 48.535 74.7086C46.4835 75.6441 44.2547 76.1271 42 76.125C39.7453 76.1271 37.5165 75.6441 35.465 74.7086C33.4135 73.7732 31.5874 72.4072 30.1105 70.7035C27.8613 70.8646 25.6038 70.5397 23.4913 69.751C21.3788 68.9623 19.4608 67.7282 17.8675 66.1325C16.2714 64.5394 15.0368 62.6215 14.2475 60.509C13.4581 58.3965 13.1326 56.1389 13.293 53.8895C11.5899 52.4123 10.2246 50.586 9.2898 48.5345C8.35495 46.483 7.87243 44.2544 7.87501 42C7.87501 37.2505 9.97501 32.9945 13.2965 30.1105C13.1364 27.8616 13.4621 25.6047 14.2514 23.4928C15.0407 21.3809 16.2752 19.4636 17.871 17.871C19.4636 16.2752 21.3809 15.0407 23.4928 14.2514C25.6047 13.4621 27.8616 13.1364 30.1105 13.2965ZM54.635 35.651C54.845 35.3712 54.997 35.0522 55.0819 34.7128C55.1669 34.3734 55.1831 34.0205 55.1297 33.6747C55.0764 33.329 54.9544 32.9974 54.771 32.6994C54.5876 32.4015 54.3465 32.1432 54.0619 31.9398C53.7773 31.7363 53.4549 31.5919 53.1136 31.5148C52.7723 31.4378 52.4191 31.4297 52.0747 31.4911C51.7303 31.5525 51.4016 31.6822 51.108 31.8724C50.8144 32.0627 50.5618 32.3097 50.365 32.599L39.039 48.454L33.355 42.77C32.8574 42.3063 32.1992 42.0539 31.5192 42.0659C30.8391 42.0779 30.1903 42.3534 29.7093 42.8343C29.2284 43.3153 28.9529 43.9641 28.9409 44.6442C28.9289 45.3242 29.1813 45.9824 29.645 46.48L37.52 54.355C37.7895 54.6243 38.1143 54.8316 38.472 54.9628C38.8296 55.0939 39.2115 55.1456 39.5912 55.1143C39.9708 55.083 40.3391 54.9694 40.6705 54.7815C41.0018 54.5936 41.2883 54.3358 41.51 54.026L54.635 35.651Z" fill="#5BC185"/>
</svg>
